<?xml version="1.0" encoding="utf-8"?>
<svg xmlns="http://www.w3.org/2000/svg" xmlns:xlink="http://www.w3.org/1999/xlink" style="margin: auto; background: none; display: block; shape-rendering: auto;" width="108px" height="108px" viewBox="0 0 100 100" preserveAspectRatio="xMidYMid">
<g transform="translate(50 50)">
<g transform="rotate(26.3209)">
<animateTransform attributeName="transform" type="rotate" values="0;45" keyTimes="0;1" dur="0.4672897196261683s" repeatCount="indefinite"></animateTransform><path d="M23.361292772447335 -5.5 L31.361292772447335 -5.5 L31.361292772447335 5.5 L23.361292772447335 5.5 A24 24 0 0 1 20.408015833207802 12.629841240155777 L20.408015833207802 12.629841240155777 L26.064870082700182 18.286695489648157 L18.28669548964816 26.064870082700182 L12.62984124015578 20.408015833207802 A24 24 0 0 1 5.500000000000003 23.361292772447335 L5.500000000000003 23.361292772447335 L5.5000000000000036 31.361292772447335 L-5.499999999999999 31.361292772447335 L-5.5 23.361292772447335 A24 24 0 0 1 -12.62984124015578 20.4080158332078 L-12.62984124015578 20.4080158332078 L-18.28669548964816 26.06487008270018 L-26.06487008270018 18.286695489648164 L-20.4080158332078 12.629841240155784 A24 24 0 0 1 -23.361292772447335 5.499999999999998 L-23.361292772447335 5.499999999999998 L-31.361292772447335 5.499999999999999 L-31.361292772447335 -5.499999999999992 L-23.361292772447335 -5.499999999999993 A24 24 0 0 1 -20.408015833207802 -12.62984124015578 L-20.408015833207802 -12.62984124015578 L-26.064870082700182 -18.28669548964816 L-18.286695489648157 -26.064870082700185 L-12.629841240155777 -20.408015833207806 A24 24 0 0 1 -5.500000000000011 -23.36129277244733 L-5.500000000000011 -23.36129277244733 L-5.500000000000012 -31.36129277244733 L5.5 -31.361292772447335 L5.500000000000002 -23.361292772447335 A24 24 0 0 1 12.62984124015577 -20.408015833207806 L12.62984124015577 -20.408015833207806 L18.28669548964815 -26.06487008270019 L26.064870082700182 -18.28669548964816 L20.408015833207802 -12.629841240155777 A24 24 0 0 1 23.36129277244733 -5.5000000000000115 M0 -12A12 12 0 1 0 0 12 A12 12 0 1 0 0 -12" fill="#1d0e0b"></path></g></g>
<!-- [ldio] generated by https://loading.io/ --></svg>